<svg id="Layer_1" data-name="Layer 1" xmlns="http://www.w3.org/2000/svg" viewBox="0 0 395 446.57"><defs><style>.cls-1{fill:#39c3c7;}.cls-2{opacity:0.5;}.cls-3{fill:#fff;}</style></defs><title>logo</title><polygon class="cls-1" points="370.92 0 370.92 78.92 349.52 78.92 349.52 0 325.3 0 325.3 78.92 303.91 78.92 303.91 0 279.82 0 279.82 78.92 257.04 78.92 257.04 0 232.95 0 232.95 78.92 162.05 78.92 162.05 0 137.96 0 137.96 78.92 137.96 102.98 162.05 102.98 232.95 102.98 257.04 102.98 279.82 102.98 303.91 102.98 325.3 102.98 349.52 102.98 370.92 102.98 370.92 124.36 115.18 124.36 115.18 0 91.09 0 91.09 124.36 91.09 148.42 115.18 148.42 370.92 148.42 370.92 169.84 349.52 169.84 325.3 169.84 69.7 169.84 69.7 0 45.48 0 45.48 169.84 24.08 169.84 24.08 0 0 0 0 169.84 0 193.91 0 215.33 0 239.39 0 262.02 0 286.08 0 365 24.08 365 24.08 286.08 45.48 286.08 45.48 365 69.7 365 69.7 286.08 91.09 286.08 91.09 365 115.18 365 115.18 286.08 136.57 286.08 136.57 365 160.61 365 160.61 286.08 232.95 286.08 232.95 365 257.04 365 257.04 286.08 257.04 262.02 232.95 262.02 160.61 262.02 136.57 262.02 115.18 262.02 91.09 262.02 69.7 262.02 45.48 262.02 24.08 262.02 24.08 239.39 279.82 239.39 279.82 365 303.91 365 303.91 239.39 303.91 239.39 303.91 215.33 24.08 215.33 24.08 193.91 45.48 193.91 69.7 193.91 325.3 193.91 325.3 365 349.52 365 349.52 193.91 370.92 193.91 370.92 365 395 365 395 193.91 395 169.84 395 148.42 395 124.36 395 102.98 395 78.92 395 0 370.92 0"/><g class="cls-2"><path class="cls-3" d="M39.86,396.45a11.94,11.94,0,0,1,5.65,0v49a11.94,11.94,0,0,1-5.65,0V422.76h-30v22.69a11.94,11.94,0,0,1-5.65,0v-49a11.94,11.94,0,0,1,5.65,0V418h30Z"/><path class="cls-3" d="M121.26,445.44a12.9,12.9,0,0,1-5.88,0l-5.65-13.64H86.81l-5.73,13.64a12.57,12.57,0,0,1-5.8,0l20.58-49a8.74,8.74,0,0,1,4.82,0ZM107.92,427,98.2,403.69,88.55,427Z"/><path class="cls-3" d="M189.32,436.62c.53.68.45,4.6,0,5.43a29.08,29.08,0,0,1-16.21,4.52c-15.83,0-26.31-11.53-26.31-25.63s10.48-25.63,26.31-25.63a29.08,29.08,0,0,1,16.21,4.52c.45.83.53,4.75,0,5.43a26.77,26.77,0,0,0-15.9-5.2c-12.06,0-20.88,8.89-20.88,20.88s8.82,20.88,20.88,20.88A26.77,26.77,0,0,0,189.32,436.62Z"/><path class="cls-3" d="M260.69,445.44a18.26,18.26,0,0,1-7,0l-25-24.2v24.2a11.94,11.94,0,0,1-5.65,0v-49a11.94,11.94,0,0,1,5.65,0v22.69l23.74-22.69a18.27,18.27,0,0,1,7,0l-24.8,23.74Z"/><path class="cls-3" d="M323.4,440.69a8.49,8.49,0,0,1,0,4.75H290.46v-49H323.4a8.49,8.49,0,0,1,0,4.75H296.11V418h25a10.1,10.1,0,0,1,0,4.75h-25v17.94Z"/><path class="cls-3" d="M395,445.44a8,8,0,0,1-4.6,0l-31-39.57v39.57a11.94,11.94,0,0,1-5.65,0v-49a8,8,0,0,1,4.6,0l31,39.57V396.45a11.94,11.94,0,0,1,5.65,0Z"/></g><g class="cls-2"><path class="cls-3" d="M35.65,396.45a11.94,11.94,0,0,1,5.65,0v49a11.94,11.94,0,0,1-5.65,0V422.76h-30v22.69a11.94,11.94,0,0,1-5.65,0v-49a11.94,11.94,0,0,1,5.65,0V418h30Z"/><path class="cls-3" d="M117.05,445.44a12.9,12.9,0,0,1-5.88,0l-5.65-13.64H82.61l-5.73,13.64a12.57,12.57,0,0,1-5.8,0l20.58-49a8.74,8.74,0,0,1,4.82,0ZM103.71,427,94,403.69,84.34,427Z"/><path class="cls-3" d="M185.11,436.62c.53.68.45,4.6,0,5.43a29.08,29.08,0,0,1-16.21,4.52c-15.83,0-26.31-11.53-26.31-25.63s10.48-25.63,26.31-25.63a29.08,29.08,0,0,1,16.21,4.52c.45.83.53,4.75,0,5.43a26.77,26.77,0,0,0-15.9-5.2c-12.06,0-20.88,8.89-20.88,20.88s8.82,20.88,20.88,20.88A26.77,26.77,0,0,0,185.11,436.62Z"/><path class="cls-3" d="M256.48,445.44a18.26,18.26,0,0,1-7,0l-25-24.2v24.2a11.94,11.94,0,0,1-5.65,0v-49a11.94,11.94,0,0,1,5.65,0v22.69l23.74-22.69a18.27,18.27,0,0,1,7,0l-24.8,23.74Z"/><path class="cls-3" d="M319.19,440.69a8.49,8.49,0,0,1,0,4.75H286.25v-49h32.94a8.49,8.49,0,0,1,0,4.75H291.91V418h25a10.1,10.1,0,0,1,0,4.75h-25v17.94Z"/><path class="cls-3" d="M390.79,445.44a8,8,0,0,1-4.6,0l-31-39.57v39.57a11.94,11.94,0,0,1-5.65,0v-49a8,8,0,0,1,4.6,0l31,39.57V396.45a11.94,11.94,0,0,1,5.65,0Z"/></g></svg>